<mxfile host="Electron" agent="Mozilla/5.0 (X11; Linux x86_64) AppleWebKit/537.36 (KHTML, like Gecko) draw.io/27.0.9 Chrome/134.0.6998.205 Electron/35.4.0 Safari/537.36" version="27.0.9">
  <diagram name="Page-1" id="BxKtSj-tNcO0w9-HT67-">
    <mxGraphModel dx="1589" dy="923" grid="1" gridSize="10" guides="1" tooltips="1" connect="1" arrows="1" fold="1" page="1" pageScale="1" pageWidth="1100" pageHeight="850" math="0" shadow="0">
      <root>
        <mxCell id="0" />
        <mxCell id="1" parent="0" />
        <mxCell id="LcxNTjJbVtHN1aJDrT-V-36" value="" style="group" vertex="1" connectable="0" parent="1">
          <mxGeometry x="102" y="140" width="918" height="515" as="geometry" />
        </mxCell>
        <mxCell id="LcxNTjJbVtHN1aJDrT-V-14" value="" style="group" vertex="1" connectable="0" parent="LcxNTjJbVtHN1aJDrT-V-36">
          <mxGeometry x="303" width="352.5" height="270" as="geometry" />
        </mxCell>
        <mxCell id="LcxNTjJbVtHN1aJDrT-V-4" value="" style="ellipse;whiteSpace=wrap;html=1;" vertex="1" parent="LcxNTjJbVtHN1aJDrT-V-14">
          <mxGeometry width="275" height="270" as="geometry" />
        </mxCell>
        <mxCell id="LcxNTjJbVtHN1aJDrT-V-6" value="" style="shape=image;verticalLabelPosition=bottom;labelBackgroundColor=default;verticalAlign=top;aspect=fixed;imageAspect=0;image=https://rocketscience.one/wp-content/uploads/2021/10/Triton-Inference-Server.png;" vertex="1" parent="LcxNTjJbVtHN1aJDrT-V-14">
          <mxGeometry x="34.51333333333331" y="9.818181818181817" width="205.9651315789474" height="115.95394736842104" as="geometry" />
        </mxCell>
        <mxCell id="LcxNTjJbVtHN1aJDrT-V-7" value="&lt;font style=&quot;font-size: 15px;&quot;&gt;&lt;b style=&quot;&quot;&gt;Serves Object Detection Models&lt;/b&gt;&lt;/font&gt;" style="text;html=1;align=center;verticalAlign=middle;whiteSpace=wrap;rounded=0;" vertex="1" parent="LcxNTjJbVtHN1aJDrT-V-14">
          <mxGeometry x="21.25" y="122.72" width="232.5" height="24.55" as="geometry" />
        </mxCell>
        <mxCell id="LcxNTjJbVtHN1aJDrT-V-8" value="" style="shape=image;verticalLabelPosition=bottom;labelBackgroundColor=default;verticalAlign=top;aspect=fixed;imageAspect=0;image=https://onnx.ai/onnx/_static/onnx-horizontal-color.png;" vertex="1" parent="LcxNTjJbVtHN1aJDrT-V-14">
          <mxGeometry x="26.48333333333331" y="171.8181818181818" width="80.27878289473685" height="22.209046052631578" as="geometry" />
        </mxCell>
        <mxCell id="LcxNTjJbVtHN1aJDrT-V-12" value="" style="shape=flexArrow;endArrow=classic;html=1;rounded=0;endSize=4;startSize=13;strokeWidth=1;sourcePerimeterSpacing=0;targetPerimeterSpacing=0;" edge="1" parent="LcxNTjJbVtHN1aJDrT-V-14">
          <mxGeometry width="50" height="50" relative="1" as="geometry">
            <mxPoint x="124.99999999999999" y="183.4609090909091" as="sourcePoint" />
            <mxPoint x="149.99999999999997" y="183.4609090909091" as="targetPoint" />
          </mxGeometry>
        </mxCell>
        <mxCell id="LcxNTjJbVtHN1aJDrT-V-13" value="" style="shape=image;verticalLabelPosition=bottom;labelBackgroundColor=default;verticalAlign=top;aspect=fixed;imageAspect=0;image=https://developer.nvidia.com/blog/wp-content/uploads/2018/11/NV_TensorRT_Visual_2C_RGB-625x625-1.png;" vertex="1" parent="LcxNTjJbVtHN1aJDrT-V-14">
          <mxGeometry x="159.0166666666667" y="156.15818181818182" width="83.02302631578948" height="51.792763157894726" as="geometry" />
        </mxCell>
        <mxCell id="LcxNTjJbVtHN1aJDrT-V-38" value="" style="text;strokeColor=none;fillColor=none;align=left;verticalAlign=middle;spacingTop=-1;spacingLeft=4;spacingRight=4;rotatable=0;labelPosition=right;points=[];portConstraint=eastwest;" vertex="1" parent="LcxNTjJbVtHN1aJDrT-V-14">
          <mxGeometry x="-77.5" y="-14" width="430" height="14" as="geometry" />
        </mxCell>
        <mxCell id="LcxNTjJbVtHN1aJDrT-V-15" value="" style="rounded=0;whiteSpace=wrap;html=1;" vertex="1" parent="LcxNTjJbVtHN1aJDrT-V-36">
          <mxGeometry x="316.75" y="350" width="247.5" height="140" as="geometry" />
        </mxCell>
        <mxCell id="LcxNTjJbVtHN1aJDrT-V-16" value="" style="endArrow=classic;html=1;rounded=0;" edge="1" parent="LcxNTjJbVtHN1aJDrT-V-36">
          <mxGeometry width="50" height="50" relative="1" as="geometry">
            <mxPoint x="428" y="350" as="sourcePoint" />
            <mxPoint x="428" y="270" as="targetPoint" />
          </mxGeometry>
        </mxCell>
        <mxCell id="LcxNTjJbVtHN1aJDrT-V-17" value="" style="endArrow=classic;html=1;rounded=0;exitX=0.582;exitY=0.988;exitDx=0;exitDy=0;exitPerimeter=0;entryX=0.59;entryY=0.004;entryDx=0;entryDy=0;entryPerimeter=0;" edge="1" parent="LcxNTjJbVtHN1aJDrT-V-36" target="LcxNTjJbVtHN1aJDrT-V-15">
          <mxGeometry width="50" height="50" relative="1" as="geometry">
            <mxPoint x="463.05000000000007" y="267.64" as="sourcePoint" />
            <mxPoint x="462" y="350" as="targetPoint" />
          </mxGeometry>
        </mxCell>
        <mxCell id="LcxNTjJbVtHN1aJDrT-V-18" value="&lt;b&gt;&lt;font style=&quot;font-size: 9px;&quot;&gt;Processed Frame&lt;/font&gt;&lt;/b&gt;" style="text;html=1;align=center;verticalAlign=middle;whiteSpace=wrap;rounded=0;rotation=0;" vertex="1" parent="LcxNTjJbVtHN1aJDrT-V-36">
          <mxGeometry x="338" y="300" width="85" height="15" as="geometry" />
        </mxCell>
        <mxCell id="LcxNTjJbVtHN1aJDrT-V-19" value="&lt;b&gt;&lt;font style=&quot;font-size: 9px;&quot;&gt;Inference Results&lt;/font&gt;&lt;/b&gt;" style="text;html=1;align=center;verticalAlign=middle;whiteSpace=wrap;rounded=0;rotation=0;" vertex="1" parent="LcxNTjJbVtHN1aJDrT-V-36">
          <mxGeometry x="468" y="300" width="85" height="15" as="geometry" />
        </mxCell>
        <mxCell id="LcxNTjJbVtHN1aJDrT-V-21" value="Pre-Processing Of Frame&lt;div&gt;&lt;br&gt;&lt;div&gt;Post-Processing Of Inference Results&lt;/div&gt;&lt;/div&gt;" style="text;html=1;align=center;verticalAlign=middle;whiteSpace=wrap;rounded=0;" vertex="1" parent="LcxNTjJbVtHN1aJDrT-V-36">
          <mxGeometry x="325.5" y="430" width="230" height="30" as="geometry" />
        </mxCell>
        <mxCell id="LcxNTjJbVtHN1aJDrT-V-22" value="" style="shape=image;verticalLabelPosition=bottom;labelBackgroundColor=default;verticalAlign=top;aspect=fixed;imageAspect=0;image=https://upload.wikimedia.org/wikipedia/commons/thumb/d/d5/Rust_programming_language_black_logo.svg/1200px-Rust_programming_language_black_logo.svg.png;" vertex="1" parent="LcxNTjJbVtHN1aJDrT-V-36">
          <mxGeometry x="411.75" y="360" width="57.5" height="57.5" as="geometry" />
        </mxCell>
        <mxCell id="LcxNTjJbVtHN1aJDrT-V-25" value="" style="group" vertex="1" connectable="0" parent="LcxNTjJbVtHN1aJDrT-V-36">
          <mxGeometry y="354" width="190" height="136" as="geometry" />
        </mxCell>
        <mxCell id="LcxNTjJbVtHN1aJDrT-V-24" value="" style="rounded=0;whiteSpace=wrap;html=1;" vertex="1" parent="LcxNTjJbVtHN1aJDrT-V-25">
          <mxGeometry width="190" height="130" as="geometry" />
        </mxCell>
        <mxCell id="LcxNTjJbVtHN1aJDrT-V-5" value="" style="shape=image;verticalLabelPosition=bottom;labelBackgroundColor=default;verticalAlign=top;aspect=fixed;imageAspect=0;image=https://www.iconpacks.net/icons/1/free-video-icon-831-thumb.png;" vertex="1" parent="LcxNTjJbVtHN1aJDrT-V-25">
          <mxGeometry x="37" y="20" width="116" height="116" as="geometry" />
        </mxCell>
        <mxCell id="LcxNTjJbVtHN1aJDrT-V-23" value="&lt;b&gt;&lt;font&gt;Raw Image/Video stream&lt;/font&gt;&lt;/b&gt;" style="text;html=1;align=center;verticalAlign=middle;whiteSpace=wrap;rounded=0;" vertex="1" parent="LcxNTjJbVtHN1aJDrT-V-25">
          <mxGeometry x="20" y="11" width="150" height="30" as="geometry" />
        </mxCell>
        <mxCell id="LcxNTjJbVtHN1aJDrT-V-26" value="" style="endArrow=classic;html=1;rounded=0;exitX=1;exitY=0.5;exitDx=0;exitDy=0;entryX=0;entryY=0.5;entryDx=0;entryDy=0;" edge="1" parent="LcxNTjJbVtHN1aJDrT-V-36" source="LcxNTjJbVtHN1aJDrT-V-24" target="LcxNTjJbVtHN1aJDrT-V-15">
          <mxGeometry width="50" height="50" relative="1" as="geometry">
            <mxPoint x="398" y="370" as="sourcePoint" />
            <mxPoint x="448" y="320" as="targetPoint" />
          </mxGeometry>
        </mxCell>
        <mxCell id="LcxNTjJbVtHN1aJDrT-V-27" value="&lt;b&gt;&lt;font style=&quot;font-size: 9px;&quot;&gt;Raw Frame&lt;/font&gt;&lt;/b&gt;" style="text;html=1;align=center;verticalAlign=middle;whiteSpace=wrap;rounded=0;rotation=0;" vertex="1" parent="LcxNTjJbVtHN1aJDrT-V-36">
          <mxGeometry x="208" y="398" width="85" height="15" as="geometry" />
        </mxCell>
        <mxCell id="LcxNTjJbVtHN1aJDrT-V-28" value="" style="ellipse;shape=cloud;whiteSpace=wrap;html=1;" vertex="1" parent="LcxNTjJbVtHN1aJDrT-V-36">
          <mxGeometry x="678" y="315" width="240" height="200" as="geometry" />
        </mxCell>
        <mxCell id="LcxNTjJbVtHN1aJDrT-V-29" value="" style="endArrow=classic;html=1;rounded=0;exitX=1;exitY=0.5;exitDx=0;exitDy=0;entryX=0;entryY=0.5;entryDx=0;entryDy=0;" edge="1" parent="LcxNTjJbVtHN1aJDrT-V-36">
          <mxGeometry width="50" height="50" relative="1" as="geometry">
            <mxPoint x="564.25" y="419" as="sourcePoint" />
            <mxPoint x="691.25" y="420" as="targetPoint" />
          </mxGeometry>
        </mxCell>
        <mxCell id="LcxNTjJbVtHN1aJDrT-V-30" value="&lt;b&gt;&lt;font style=&quot;font-size: 9px;&quot;&gt;BBOXs for frame&lt;/font&gt;&lt;/b&gt;" style="text;html=1;align=center;verticalAlign=middle;whiteSpace=wrap;rounded=0;rotation=0;" vertex="1" parent="LcxNTjJbVtHN1aJDrT-V-36">
          <mxGeometry x="582.25" y="398" width="85" height="15" as="geometry" />
        </mxCell>
        <mxCell id="LcxNTjJbVtHN1aJDrT-V-32" value="" style="shape=image;verticalLabelPosition=bottom;labelBackgroundColor=default;verticalAlign=top;aspect=fixed;imageAspect=0;image=https://png.pngtree.com/png-clipart/20220909/original/pngtree-live-streaming-video-red-png-image_8498511.png;" vertex="1" parent="LcxNTjJbVtHN1aJDrT-V-36">
          <mxGeometry x="769" y="413" width="67.61" height="67.61" as="geometry" />
        </mxCell>
        <mxCell id="LcxNTjJbVtHN1aJDrT-V-33" value="" style="shape=image;verticalLabelPosition=bottom;labelBackgroundColor=default;verticalAlign=top;aspect=fixed;imageAspect=0;image=https://platform9.com/media/kafka.png;" vertex="1" parent="LcxNTjJbVtHN1aJDrT-V-36">
          <mxGeometry x="753.1999999999999" y="372.28" width="99.22" height="45.22" as="geometry" />
        </mxCell>
        <mxCell id="LcxNTjJbVtHN1aJDrT-V-37" value="" style="text;strokeColor=none;fillColor=none;align=left;verticalAlign=middle;spacingTop=-1;spacingLeft=4;spacingRight=4;rotatable=0;labelPosition=right;points=[];portConstraint=eastwest;" vertex="1" parent="1">
          <mxGeometry x="82" y="494" width="20" height="126" as="geometry" />
        </mxCell>
      </root>
    </mxGraphModel>
  </diagram>
</mxfile>
